<?xml version="1.0" encoding="utf-8"?>

<!-- License Agreement at http://iconmonstr.com/license/ -->

<!DOCTYPE svg PUBLIC "-//W3C//DTD SVG 1.1//EN" "http://www.w3.org/Graphics/SVG/1.1/DTD/svg11.dtd">
<svg version="1.1" xmlns="http://www.w3.org/2000/svg" xmlns:xlink="http://www.w3.org/1999/xlink" x="0px" y="0px"
	 width="512px" height="512px" viewBox="0 0 512 512" enable-background="new 0 0 512 512" xml:space="preserve">
<path id="headphones-10-icon" d="M256,228.022c-64.142,0-116.139,51.369-116.139,114.736c0,63.369,51.997,114.742,116.139,114.742
	c64.143,0,116.139-51.373,116.139-114.742C372.139,279.392,320.143,228.022,256,228.022z M223.076,405.974V282.366l100.804,61.805
	L223.076,405.974z M133.357,421.503H85c-19.33,0-35-15.67-35-35v-86.502c0-19.33,15.67-35,35-35h47.713
	c-14.269,22.168-22.852,48.82-22.852,77.758C109.861,371.96,118.601,398.985,133.357,421.503z M108.309,238.001H77.877
	C81.807,134.78,153.718,54.499,256,54.499s174.193,80.281,178.123,183.502h-30.432c-4.396-84.422-71.1-132.537-147.691-132.381
	C179.408,105.464,112.704,153.579,108.309,238.001z M427,265.001c19.33,0,35,15.67,35,35v86.502c0,19.33-15.67,35-35,35h-48.356
	c14.734-22.488,23.495-49.502,23.495-78.744c0-28.131-8.122-54.869-22.852-77.758H427z"/>
</svg>
