<?xml version="1.0" encoding="UTF-8" standalone="no"?>
<!-- License Agreement at http://iconmonstr.com/license/ -->

<svg
   xmlns:dc="http://purl.org/dc/elements/1.1/"
   xmlns:cc="http://creativecommons.org/ns#"
   xmlns:rdf="http://www.w3.org/1999/02/22-rdf-syntax-ns#"
   xmlns:svg="http://www.w3.org/2000/svg"
   xmlns="http://www.w3.org/2000/svg"
   xmlns:sodipodi="http://sodipodi.sourceforge.net/DTD/sodipodi-0.dtd"
   xmlns:inkscape="http://www.inkscape.org/namespaces/inkscape"
   version="1.1"
   x="0px"
   y="0px"
   width="512px"
   height="512px"
   viewBox="0 0 512 512"
   enable-background="new 0 0 512 512"
   xml:space="preserve"
   id="svg2"
   inkscape:version="0.48.4 r9939"
   sodipodi:docname="iconmonstr-headphones-10-icon.svg"><metadata
     id="metadata9"><rdf:RDF><cc:Work
         rdf:about=""><dc:format>image/svg+xml</dc:format><dc:type
           rdf:resource="http://purl.org/dc/dcmitype/StillImage" /><dc:title></dc:title></cc:Work></rdf:RDF></metadata><defs
     id="defs7" /><sodipodi:namedview
     pagecolor="#ffffff"
     bordercolor="#666666"
     borderopacity="1"
     objecttolerance="10"
     gridtolerance="10"
     guidetolerance="10"
     inkscape:pageopacity="0"
     inkscape:pageshadow="2"
     inkscape:window-width="640"
     inkscape:window-height="480"
     id="namedview5"
     showgrid="false"
     inkscape:zoom="0.4609375"
     inkscape:cx="256"
     inkscape:cy="256"
     inkscape:window-x="0"
     inkscape:window-y="24"
     inkscape:window-maximized="0"
     inkscape:current-layer="svg2" /><path
     id="headphones-10-icon"
     d="M256,228.022c-64.142,0-116.139,51.369-116.139,114.736c0,63.369,51.997,114.742,116.139,114.742  c64.143,0,116.139-51.373,116.139-114.742C372.139,279.392,320.143,228.022,256,228.022z M223.076,405.974V282.366l100.804,61.805  L223.076,405.974z M133.357,421.503H85c-19.33,0-35-15.67-35-35v-86.502c0-19.33,15.67-35,35-35h47.713  c-14.269,22.168-22.852,48.82-22.852,77.758C109.861,371.96,118.601,398.985,133.357,421.503z M108.309,238.001H77.877  C81.807,134.78,153.718,54.499,256,54.499s174.193,80.281,178.123,183.502h-30.432c-4.396-84.422-71.1-132.537-147.691-132.381  C179.408,105.464,112.704,153.579,108.309,238.001z M427,265.001c19.33,0,35,15.67,35,35v86.502c0,19.33-15.67,35-35,35h-48.356  c14.734-22.488,23.495-49.502,23.495-78.744c0-28.131-8.122-54.869-22.852-77.758H427z"
     style="fill:#ffffff" /></svg>